<mxfile host="app.diagrams.net" modified="2024-04-03T03:00:42.004Z" agent="Mozilla/5.0 (Macintosh; Intel Mac OS X 10_15_7) AppleWebKit/537.36 (KHTML, like Gecko) Chrome/123.0.0.0 Safari/537.36" version="24.0.8" etag="65eRZnthrYzpJXx-vVKi" type="github">
  <diagram name="第 1 页" id="if7jGNkeFzV_JXAf8cjr">
    <mxGraphModel>
      <root>
        <mxCell id="0" />
        <mxCell id="1" parent="0" />
      </root>
    </mxGraphModel>
  </diagram>
</mxfile>
